<?xml version="1.0" standalone="no"?>
<!DOCTYPE svg PUBLIC "-//W3C//DTD SVG 20010904//EN"
 "http://www.w3.org/TR/2001/REC-SVG-20010904/DTD/svg10.dtd">
<svg version="1.0" xmlns="http://www.w3.org/2000/svg"
 width="225.000000pt" height="225.000000pt" viewBox="0 0 225.000000 225.000000"
 preserveAspectRatio="xMidYMid meet">

<g transform="translate(0.000000,225.000000) scale(0.100000,-0.100000)"
fill="#F5F5F5" stroke="none">
<path d="M1952 1680 c-152 -72 -499 -336 -686 -522 -220 -219 -634 -381 -930
-365 -56 3 -112 9 -126 13 -22 7 -23 6 -12 -9 8 -9 23 -17 34 -19 12 -2 24 -9
26 -17 3 -10 -1 -12 -17 -8 l-22 5 23 -36 c44 -74 50 -81 69 -87 15 -5 17 -10
9 -20 -48 -57 236 -96 441 -60 170 30 356 108 534 225 55 37 188 140 295 229
222 186 382 305 488 363 39 22 72 45 72 51 -1 29 -109 282 -121 285 -8 1 -42
-11 -77 -28z m88 -53 c0 -11 -51 -37 -73 -37 -20 0 -3 23 26 35 40 18 47 18
47 2z m-150 -76 c0 -17 -61 -54 -71 -44 -7 7 1 18 23 31 36 24 48 27 48 13z
m-140 -100 c0 -15 -59 -53 -71 -45 -7 4 -1 15 17 30 30 24 54 31 54 15z m350
-10 c0 -8 -64 -51 -76 -51 -15 0 0 28 24 42 30 19 52 23 52 9z m-486 -90 c3
-5 -10 -21 -28 -35 -43 -32 -59 -16 -19 19 31 27 39 30 47 16z m339 2 c4 -3
-9 -17 -29 -31 -23 -15 -39 -21 -46 -14 -6 6 3 17 24 30 36 24 41 25 51 15z
m-139 -101 c6 -10 -47 -52 -64 -52 -18 0 -10 18 18 39 30 23 38 25 46 13z
m-330 -10 c2 -4 -10 -20 -29 -35 -22 -18 -36 -23 -41 -16 -3 6 6 22 22 35 31
25 40 28 48 16z m196 -96 c0 -17 -58 -61 -67 -52 -7 7 46 66 59 66 4 0 8 -6 8
-14z m-326 -14 c2 -4 -10 -20 -29 -35 -22 -18 -36 -23 -41 -16 -3 6 6 22 22
35 31 25 40 28 48 16z m196 -96 c0 -17 -58 -61 -67 -52 -7 7 46 66 59 66 4 0
8 -6 8 -14z m-330 -8 c0 -7 -16 -23 -34 -35 -45 -29 -55 -7 -12 24 36 26 46
28 46 11z m-140 -97 c0 -6 -63 -41 -75 -41 -15 0 0 21 27 38 30 19 48 21 48 3z
m339 -3 c0 -19 -57 -60 -70 -52 -8 5 0 17 22 35 38 31 49 35 48 17z m-494 -68
c8 -13 -54 -43 -73 -35 -13 6 -8 12 23 26 48 22 43 21 50 9z m355 -33 c0 -17
-57 -50 -71 -42 -6 4 3 17 23 31 38 27 48 29 48 11z m-513 -34 c3 -9 -32 -21
-72 -24 -25 -2 -12 19 17 28 38 12 50 11 55 -4z m-167 -38 c0 -11 -12 -15 -45
-15 -49 0 -62 16 -17 23 53 8 62 7 62 -8z m-170 -10 c0 -11 -11 -15 -39 -15
-38 0 -57 10 -44 24 3 3 24 6 45 6 27 0 38 -4 38 -15z m705 -5 c8 -13 -53 -43
-73 -35 -14 5 -10 10 18 25 41 22 47 23 55 10z m-155 -71 c0 -8 -58 -39 -75
-39 -17 0 0 28 23 37 36 14 52 15 52 2z m-160 -54 c0 -8 -6 -15 -14 -15 -7 0
-28 -3 -46 -7 -25 -5 -32 -3 -28 8 4 12 36 24 76 28 6 0 12 -6 12 -14z m-362
-11 c32 -9 27 -24 -7 -24 -35 0 -61 9 -61 21 0 10 34 12 68 3z m192 -13 c0
-12 -26 -21 -61 -21 -19 0 -29 5 -29 15 0 11 12 15 45 15 25 0 45 -4 45 -9z"/>
<path d="M939 1540 c-276 -44 -579 -189 -736 -353 -133 -138 -142 -250 -27
-314 212 -119 766 41 1041 300 157 148 172 273 41 341 -49 24 -69 28 -159 31
-57 2 -129 0 -160 -5z m92 -70 c27 -15 24 -34 -12 -74 -60 -69 -225 -119 -273
-83 -81 61 187 209 285 157z m174 -133 c64 -47 -104 -167 -233 -167 -101 0
-96 68 9 132 70 44 187 62 224 35z m-584 -26 c22 -17 22 -21 9 -46 -41 -76
-228 -143 -285 -101 -60 44 99 163 221 165 18 1 42 -8 55 -18z m149 -101 c0
-25 -39 -50 -90 -57 -36 -5 -40 -3 -40 15 0 25 60 61 103 62 20 0 27 -5 27
-20z m124 -109 c13 -14 15 -24 8 -38 -32 -58 -127 -111 -216 -120 -122 -13
-129 59 -14 132 71 45 192 59 222 26z m-360 -10 c14 -15 15 -24 7 -39 -54
-101 -301 -165 -301 -79 0 81 241 177 294 118z"/>
</g>
</svg>
